<svg width="191" height="455" viewBox="0 0 191 455" fill="none" xmlns="http://www.w3.org/2000/svg">
<ellipse cx="101" cy="386.5" rx="61" ry="12.5" fill="#F6F5F4"/>
<path d="M160 387C160 393.075 133.975 398 101.251 398C68.5276 398 42 393.075 42 387C42 380.925 68.5276 376 101.251 376C133.975 376 160 380.925 160 387Z" fill="#D1CCC7"/>
<ellipse cx="101" cy="440.5" rx="61" ry="14.5" fill="#618C62"/>
<mask id="mask0_37_7" style="mask-type:alpha" maskUnits="userSpaceOnUse" x="37" y="386" width="130" height="59">
<rect x="37" y="386" width="130" height="59" fill="#D9D9D9"/>
</mask>
<g mask="url(#mask0_37_7)">
<rect x="39" y="352" width="124" height="87" rx="43.5" fill="#D9D9D9"/>
<ellipse cx="101" cy="386.5" rx="61" ry="12.5" fill="#F6F5F4"/>
<path d="M160 386C160 392.075 133.975 397 101.251 397C68.5276 397 42 392.075 42 386C42 379.925 68.5276 375 101.251 375C133.975 375 160 379.925 160 386Z" fill="#D1CCC7"/>
<rect x="78" y="437" width="48" height="5" rx="1" fill="#D9D9D9"/>
</g>
<ellipse cx="73.1153" cy="205.574" rx="7.86341" ry="10.4198" transform="rotate(-21.0877 73.1153 205.574)" fill="#40693A"/>
<ellipse cx="77.4331" cy="201.451" rx="4.79956" ry="11.881" transform="rotate(171.883 77.4331 201.451)" fill="#40693A"/>
<ellipse cx="118.514" cy="248.801" rx="7.86341" ry="10.4198" transform="rotate(18.582 118.514 248.801)" fill="#40693A"/>
<ellipse cx="127.015" cy="250.899" rx="4.79956" ry="11.881" transform="rotate(-124.106 127.015 250.899)" fill="#40693A"/>
<ellipse cx="124.47" cy="248.383" rx="4.79956" ry="11.881" transform="rotate(-148.448 124.47 248.383)" fill="#40693A"/>
<ellipse cx="132.514" cy="148.801" rx="7.86341" ry="10.4198" transform="rotate(18.582 132.514 148.801)" fill="#40693A"/>
<ellipse cx="141.015" cy="150.899" rx="4.79956" ry="11.881" transform="rotate(-124.106 141.015 150.899)" fill="#40693A"/>
<ellipse cx="138.47" cy="148.383" rx="4.79956" ry="11.881" transform="rotate(-148.448 138.47 148.383)" fill="#40693A"/>
<path d="M169 244.085C169.638 245.32 169.705 246.935 169.025 248.958C168.342 250.987 166.943 253.297 164.863 255.741C160.708 260.622 154.042 265.797 145.831 270.041C137.62 274.285 129.542 276.73 123.158 277.297C119.961 277.58 117.267 277.386 115.218 276.769C113.174 276.155 111.895 275.165 111.257 273.931C110.619 272.696 110.551 271.08 111.232 269.058C111.914 267.029 113.314 264.719 115.393 262.275C119.548 257.394 126.214 252.219 134.425 247.975C142.637 243.73 150.714 241.285 157.099 240.719C160.295 240.436 162.989 240.63 165.039 241.246C167.083 241.861 168.361 242.851 169 244.085Z" stroke="#B66887" stroke-width="3"/>
<path d="M169.355 242.595C170.156 244.145 170.176 246.059 169.44 248.247C168.703 250.436 167.221 252.856 165.092 255.358C160.834 260.361 154.055 265.61 145.757 269.899C137.46 274.188 129.257 276.682 122.713 277.262C119.44 277.553 116.609 277.362 114.397 276.697C112.187 276.032 110.637 274.909 109.836 273.359C109.035 271.81 109.015 269.895 109.751 267.708C110.488 265.519 111.97 263.099 114.099 260.596C118.357 255.594 125.136 250.344 133.434 246.056C141.731 241.767 149.934 239.273 156.478 238.692C159.751 238.402 162.582 238.593 164.794 239.258C167.004 239.923 168.554 241.046 169.355 242.595Z" stroke="#B66887"/>
<path d="M167.802 243.597C168.385 244.724 168.441 246.228 167.759 248.156C167.075 250.088 165.694 252.301 163.649 254.652C159.564 259.348 153.042 264.356 145.032 268.495C137.022 272.635 129.165 275.061 122.972 275.677C119.871 275.986 117.267 275.832 115.296 275.273C113.328 274.714 112.133 273.798 111.551 272.672C110.969 271.546 110.913 270.041 111.595 268.113C112.279 266.181 113.66 263.969 115.705 261.617C119.789 256.921 126.312 251.914 134.322 247.774C142.331 243.634 150.189 241.209 156.382 240.592C159.483 240.284 162.087 240.437 164.058 240.997C166.025 241.555 167.22 242.471 167.802 243.597Z" stroke="#FFF3F1" stroke-width="3"/>
<path d="M122.5 101.32C122.5 105.994 119.215 110.508 113.29 113.938C107.404 117.345 99.173 119.5 90 119.5C80.827 119.5 72.596 117.345 66.7098 113.938C60.7847 110.508 57.5 105.994 57.5 101.32C57.5 96.6464 60.7847 92.1319 66.7098 88.7024C72.596 85.2953 80.827 83.14 90 83.14C99.173 83.14 107.404 85.2953 113.29 88.7024C119.215 92.1319 122.5 96.6464 122.5 101.32Z" stroke="#B66887" stroke-width="3"/>
<path d="M123.5 99.68C123.5 104.861 119.868 109.646 113.791 113.163C107.727 116.673 99.3169 118.86 90 118.86C80.6831 118.86 72.2728 116.673 66.2088 113.163C60.132 109.646 56.5 104.861 56.5 99.68C56.5 94.4991 60.132 89.7143 66.2088 86.1969C72.2728 82.6869 80.6831 80.5 90 80.5C99.3169 80.5 107.727 82.6869 113.791 86.1969C119.868 89.7143 123.5 94.4991 123.5 99.68Z" stroke="#B66887"/>
<path d="M121.16 99.68C121.16 103.856 118.166 108.032 112.459 111.278C106.811 114.49 98.875 116.54 90 116.54C81.125 116.54 73.1887 114.49 67.5408 111.278C61.8345 108.032 58.8395 103.856 58.8395 99.68C58.8395 95.5042 61.8345 91.3279 67.5408 88.0825C73.1887 84.8702 81.125 82.82 90 82.82C98.875 82.82 106.811 84.8702 112.459 88.0825C118.166 91.3279 121.16 95.5042 121.16 99.68Z" stroke="#FFF3F1" stroke-width="4"/>
<path d="M113.482 194.285C108.965 200.179 102.292 204.039 94.9304 205.013C87.5686 205.988 80.1211 203.998 74.2263 199.482C68.3315 194.965 64.4723 188.292 63.4977 180.93C62.523 173.569 64.5127 166.121 69.0292 160.226L91.2554 177.255L113.482 194.285Z" fill="#D54A35"/>
<path d="M111.1 192.46C107.068 197.723 101.11 201.169 94.5366 202.039C87.9636 202.909 81.314 201.133 76.0508 197.1C70.7876 193.068 67.3419 187.11 66.4717 180.537C65.6015 173.964 67.378 167.314 71.4105 162.051L91.2554 177.255L111.1 192.46Z" fill="#DC6856"/>
<path d="M107.131 189.419C104.067 193.419 99.5385 196.038 94.5429 196.699C89.5474 197.361 84.4938 196.01 80.4937 192.946C76.4937 189.881 73.875 185.353 73.2136 180.357C72.5522 175.362 73.9024 170.308 76.9671 166.308L92.0492 177.864L107.131 189.419Z" fill="#D54A35"/>
<path d="M100.477 184.951C98.7832 187.161 96.2808 188.608 93.5201 188.974C90.7595 189.339 87.9666 188.593 85.7561 186.899C83.5456 185.206 82.0984 182.703 81.7329 179.943C81.3674 177.182 82.1135 174.389 83.8072 172.179L92.142 178.565L100.477 184.951Z" fill="#DC6856"/>
<rect x="74.5857" y="164.484" width="42" height="4" transform="rotate(37.4583 74.5857 164.484)" fill="#DC6856"/>
<ellipse cx="77.5889" cy="179.035" rx="1" ry="2" transform="rotate(103.578 77.5889 179.035)" fill="#FFF6CB"/>
<ellipse cx="80.0545" cy="186.608" rx="1" ry="2" transform="rotate(64.3546 80.0545 186.608)" fill="#FFF6CB"/>
<ellipse cx="87.0933" cy="191.989" rx="1" ry="2" transform="rotate(16.2211 87.0933 191.989)" fill="#FFF6CB"/>
<ellipse cx="95.9448" cy="192.838" rx="1" ry="2" transform="rotate(143.624 95.9448 192.838)" fill="#FFF6CB"/>
<ellipse cx="98.9587" cy="76.7527" rx="4.79956" ry="11.881" transform="rotate(-163.6 98.9587 76.7527)" fill="#40693A"/>
<ellipse cx="93.3943" cy="80.0732" rx="7.16423" ry="11.881" transform="rotate(168.471 93.3943 80.0732)" fill="#40693A"/>
<ellipse cx="110.947" cy="176.028" rx="15" ry="9.42132" transform="rotate(-15.2178 110.947 176.028)" fill="#31512D"/>
<ellipse cx="110.81" cy="175.624" rx="13" ry="8.16514" transform="rotate(-15.2178 110.81 175.624)" fill="#E0EDD5"/>
<ellipse rx="1.09826" ry="1.38118" transform="matrix(0.961502 -0.274798 0.250152 0.968207 109.364 171.344)" fill="#A2CC95"/>
<ellipse rx="1.09826" ry="1.38118" transform="matrix(0.961502 -0.274798 0.250152 0.968207 111.202 178.402)" fill="#A2CC95"/>
<ellipse rx="0.690588" ry="2.19651" transform="matrix(0.250152 0.968207 -0.961502 0.274798 114.735 174.52)" fill="#A2CC95"/>
<ellipse rx="0.690588" ry="2.19651" transform="matrix(0.250152 0.968207 -0.961502 0.274798 107.29 176.068)" fill="#A2CC95"/>
<ellipse cx="125.125" cy="138.978" rx="4.79956" ry="11.881" transform="rotate(169.308 125.125 138.978)" fill="#40693A"/>
<ellipse cx="121.684" cy="144.468" rx="7.16423" ry="11.881" transform="rotate(141.379 121.684 144.468)" fill="#40693A"/>
<ellipse cx="122" cy="99" rx="15" ry="4" fill="#40693A"/>
<ellipse cx="122" cy="98" rx="15" ry="3" fill="#E0EDD5"/>
<circle cx="87" cy="15" r="15" fill="#40693A"/>
<circle cx="87" cy="15" r="13" fill="#E0EDD5"/>
<ellipse cx="87" cy="11" rx="1" ry="2" fill="#A2CC95"/>
<ellipse cx="87" cy="19" rx="1" ry="2" fill="#A2CC95"/>
<ellipse cx="91" cy="15" rx="1" ry="2" transform="rotate(90 91 15)" fill="#A2CC95"/>
<ellipse cx="83" cy="15" rx="1" ry="2" transform="rotate(90 83 15)" fill="#A2CC95"/>
<ellipse cx="118.542" cy="97.2043" rx="1.5" ry="0.5" transform="rotate(-31.1763 118.542 97.2043)" fill="#A2CC95"/>
<ellipse cx="125.436" cy="97.3908" rx="1.5" ry="0.5" transform="rotate(43.1622 125.436 97.3908)" fill="#A2CC95"/>
<mask id="mask1_37_7" style="mask-type:alpha" maskUnits="userSpaceOnUse" x="0" y="268" width="191" height="129">
<path d="M160 386C160 392.075 133.975 397 101.251 397C68.5276 397 42 392.075 42 386C42 379.925 68.5276 375 101.251 375C133.975 375 160 379.925 160 386Z" fill="#D1CCC7"/>
<rect y="268" width="191" height="118" fill="#D9D9D9"/>
</mask>
<g mask="url(#mask1_37_7)">
<path d="M142.582 316.394C144.119 323.659 142.706 331.237 138.656 337.461C134.605 343.685 128.248 348.045 120.982 349.582C113.717 351.119 106.139 349.706 99.9149 345.656C93.6909 341.605 89.331 335.248 87.7942 327.982L115.188 322.188L142.582 316.394Z" fill="#D54A35"/>
<path d="M139.647 317.015C141.019 323.502 139.758 330.268 136.141 335.825C132.525 341.382 126.848 345.275 120.362 346.647C113.875 348.019 107.108 346.758 101.551 343.141C95.9942 339.525 92.1014 333.848 90.7293 327.362L115.188 322.188L139.647 317.015Z" fill="#DC6856"/>
<path d="M134.755 318.049C135.798 322.979 134.84 328.122 132.091 332.345C129.342 336.569 125.028 339.527 120.098 340.57C115.168 341.613 110.026 340.654 105.802 337.906C101.579 335.157 98.6205 330.843 97.5778 325.913L116.166 321.981L134.755 318.049Z" fill="#D54A35"/>
<path d="M127.032 320.194C127.608 322.919 127.079 325.76 125.559 328.094C124.04 330.428 121.656 332.063 118.932 332.64C116.207 333.216 113.366 332.686 111.032 331.167C108.698 329.648 107.063 327.264 106.486 324.54L116.759 322.367L127.032 320.194Z" fill="#DC6856"/>
<rect x="94.6427" y="326.534" width="42" height="4" transform="rotate(-11.9429 94.6427 326.534)" fill="#DC6856"/>
<ellipse cx="107.645" cy="333.723" rx="1" ry="2" transform="rotate(54.1763 107.645 333.723)" fill="#FFF6CB"/>
<ellipse cx="115" cy="336.779" rx="1" ry="2" transform="rotate(14.9533 115 336.779)" fill="#FFF6CB"/>
<ellipse cx="123.666" cy="334.936" rx="1" ry="2" transform="rotate(-33.1801 123.666 334.936)" fill="#FFF6CB"/>
<ellipse cx="130.071" cy="328.768" rx="1" ry="2" transform="rotate(94.2227 130.071 328.768)" fill="#FFF6CB"/>
<path d="M136.5 374C136.5 379.884 132.466 385.477 125.373 389.68C118.313 393.864 108.462 396.5 97.5 396.5C86.5381 396.5 76.687 393.864 69.6269 389.68C62.534 385.477 58.5 379.884 58.5 374C58.5 368.116 62.534 362.523 69.6269 358.32C76.687 354.136 86.5381 351.5 97.5 351.5C108.462 351.5 118.313 354.136 125.373 358.32C132.466 362.523 136.5 368.116 136.5 374Z" stroke="#B66887" stroke-width="3"/>
<path d="M137.5 372C137.5 378.38 133.133 384.244 125.883 388.54C118.644 392.83 108.61 395.5 97.5 395.5C86.3902 395.5 76.3565 392.83 69.1171 388.54C61.8667 384.244 57.5 378.38 57.5 372C57.5 365.62 61.8667 359.756 69.1171 355.46C76.3565 351.17 86.3902 348.5 97.5 348.5C108.61 348.5 118.644 351.17 125.883 355.46C133.133 359.756 137.5 365.62 137.5 372Z" stroke="#B66887"/>
<path d="M135 372C135 377.343 131.266 382.551 124.424 386.535C117.633 390.49 108.118 393 97.5 393C86.8822 393 77.3675 390.49 70.5757 386.535C63.7341 382.551 60 377.343 60 372C60 366.657 63.7341 361.449 70.5757 357.465C77.3675 353.51 86.8822 351 97.5 351C108.118 351 117.633 353.51 124.424 357.465C131.266 361.449 135 366.657 135 372Z" stroke="#FFF3F1" stroke-width="4"/>
<ellipse cx="125.174" cy="384.257" rx="6.5" ry="16" transform="rotate(-0.175798 125.174 384.257)" fill="#40693A"/>
<ellipse cx="119.414" cy="390.652" rx="8.8756" ry="15.2117" transform="rotate(-21.0877 119.414 390.652)" fill="#40693A"/>
<ellipse cx="140.062" cy="395.044" rx="9.89231" ry="24.0227" transform="rotate(-99.9653 140.062 395.044)" fill="#40693A"/>
<ellipse cx="131.622" cy="380.99" rx="4.79956" ry="11.881" transform="rotate(-163.776 131.622 380.99)" fill="#40693A"/>
<ellipse cx="136.227" cy="389.598" rx="9.8923" ry="24.0227" transform="rotate(-123.156 136.227 389.598)" fill="#40693A"/>
<ellipse cx="96.9255" cy="389.763" rx="6.5" ry="16" transform="rotate(10.7968 96.9255 389.763)" fill="#40693A"/>
<ellipse cx="90.0536" cy="394.945" rx="8.8756" ry="15.2117" transform="rotate(-10.115 90.0536 394.945)" fill="#40693A"/>
<ellipse cx="109.488" cy="403.186" rx="9.89231" ry="24.0227" transform="rotate(-88.9926 109.488 403.186)" fill="#40693A"/>
<ellipse cx="103.878" cy="387.783" rx="4.79956" ry="11.881" transform="rotate(-152.803 103.878 387.783)" fill="#40693A"/>
<ellipse cx="106.76" cy="397.11" rx="9.89231" ry="24.0227" transform="rotate(-112.183 106.76 397.11)" fill="#40693A"/>
<ellipse rx="6.5" ry="16" transform="matrix(-0.912214 -0.409715 -0.409715 0.912214 76.332 382.569)" fill="#40693A"/>
<ellipse rx="8.8756" ry="15.2117" transform="matrix(-0.705887 -0.708325 -0.708325 0.705887 78.9911 390.755)" fill="#40693A"/>
<ellipse rx="9.89231" ry="24.0227" transform="matrix(0.558851 -0.829268 -0.829268 -0.558851 58.3429 386.364)" fill="#40693A"/>
<ellipse rx="4.79956" ry="11.881" transform="matrix(0.990778 0.135493 0.135493 -0.990778 71.7707 376.96)" fill="#40693A"/>
<ellipse rx="9.89231" ry="24.0227" transform="matrix(0.840255 -0.542191 -0.542191 -0.840255 64.0622 382.95)" fill="#40693A"/>
<ellipse cx="87.7156" cy="376.912" rx="7.86341" ry="10.4198" transform="rotate(-21.0877 87.7156 376.912)" fill="#40693A"/>
<ellipse cx="95.5981" cy="373.1" rx="4.79956" ry="11.881" transform="rotate(-163.776 95.5981 373.1)" fill="#40693A"/>
<ellipse cx="92.0333" cy="372.789" rx="4.79956" ry="11.881" transform="rotate(171.883 92.0333 372.789)" fill="#40693A"/>
<ellipse rx="6.5" ry="16" transform="matrix(-0.912214 -0.409715 -0.409715 0.912214 78.6397 291.07)" fill="#40693A"/>
<ellipse rx="8.8756" ry="15.2117" transform="matrix(-0.705887 -0.708325 -0.708325 0.705887 81.2988 299.256)" fill="#40693A"/>
<ellipse rx="8.8756" ry="12.5134" transform="matrix(-0.705887 -0.708325 -0.708325 0.705887 116.129 353.929)" fill="#40693A"/>
<ellipse rx="9.89231" ry="24.0227" transform="matrix(0.558851 -0.829268 -0.829268 -0.558851 60.6506 294.866)" fill="#40693A"/>
<ellipse rx="4.79956" ry="11.881" transform="matrix(0.990778 0.135493 0.135493 -0.990778 74.0783 285.462)" fill="#40693A"/>
<ellipse rx="9.89231" ry="24.0227" transform="matrix(0.840255 -0.542191 -0.542191 -0.840255 66.3698 291.451)" fill="#40693A"/>
<ellipse rx="6.89519" ry="15.8671" transform="matrix(0.999934 0.0114798 0.144324 -0.98953 150.734 335.78)" fill="#40693A"/>
<ellipse rx="6.51574" ry="16.7861" transform="matrix(0.915674 0.401923 0.518188 -0.855267 154.665 337.681)" fill="#40693A"/>
<ellipse rx="6.51574" ry="16.7861" transform="matrix(0.915674 0.401923 0.518188 -0.855267 154.665 337.681)" fill="#40693A"/>
<ellipse rx="5.87727" ry="11.3398" transform="matrix(0.688252 -0.725472 -0.603836 -0.797109 106.892 353.371)" fill="#40693A"/>
<ellipse rx="5.41616" ry="12.6214" transform="matrix(0.891511 -0.452998 -0.1922 -0.981356 110.165 351.84)" fill="#40693A"/>
<ellipse cx="106.184" cy="375.232" rx="15" ry="6.5" transform="rotate(15.3211 106.184 375.232)" fill="#31512D"/>
<ellipse cx="106.413" cy="374.397" rx="13" ry="5.63333" transform="rotate(15.3211 106.413 374.397)" fill="#E0EDD5"/>
<ellipse cx="107.144" cy="371.728" rx="1" ry="0.866667" transform="rotate(15.3211 107.144 371.728)" fill="#A2CC95"/>
<ellipse cx="106.228" cy="375.072" rx="1" ry="0.866667" transform="rotate(15.3211 106.228 375.072)" fill="#A2CC95"/>
<ellipse cx="110.544" cy="374.457" rx="0.433333" ry="2" transform="rotate(105.321 110.544 374.457)" fill="#A2CC95"/>
<ellipse cx="102.829" cy="372.343" rx="0.433333" ry="2" transform="rotate(105.321 102.829 372.343)" fill="#A2CC95"/>
<ellipse cx="139.352" cy="382.176" rx="15" ry="9.42132" transform="rotate(-43.7241 139.352 382.176)" fill="#31512D"/>
<ellipse cx="139.038" cy="381.886" rx="13" ry="8.16514" transform="rotate(-43.7241 139.038 381.886)" fill="#E0EDD5"/>
<ellipse rx="1.09826" ry="1.38118" transform="matrix(0.713785 -0.700365 0.681906 0.73144 135.726 378.816)" fill="#A2CC95"/>
<ellipse rx="1.09826" ry="1.38118" transform="matrix(0.713785 -0.700365 0.681906 0.73144 140.709 384.141)" fill="#A2CC95"/>
<ellipse rx="0.690588" ry="2.19651" transform="matrix(0.681906 0.73144 -0.713785 0.700365 141.961 379.043)" fill="#A2CC95"/>
<ellipse rx="0.690588" ry="2.19651" transform="matrix(0.681906 0.73144 -0.713785 0.700365 136.157 383.957)" fill="#A2CC95"/>
<path d="M99.9813 392.756C94.8954 398.167 87.8682 401.336 80.4457 401.566C73.0232 401.795 65.8134 399.067 60.4023 393.981C54.9913 388.895 51.8223 381.868 51.5924 374.446C51.3626 367.023 54.0907 359.813 59.1767 354.402L79.579 373.579L99.9813 392.756Z" fill="#D54A35"/>
<path d="M97.7954 390.701C93.2543 395.532 86.98 398.362 80.3528 398.567C73.7256 398.772 67.2882 396.336 62.457 391.795C57.6257 387.254 54.7962 380.98 54.591 374.353C54.3857 367.726 56.8216 361.288 61.3626 356.457L79.579 373.579L97.7954 390.701Z" fill="#DC6856"/>
<path d="M94.1521 387.277C90.7009 390.948 85.9325 393.099 80.8958 393.255C75.8591 393.411 70.9667 391.56 67.2949 388.108C63.6231 384.657 61.4727 379.889 61.3168 374.852C61.1608 369.815 63.012 364.923 66.4632 361.251L80.3077 374.264L94.1521 387.277Z" fill="#D54A35"/>
<path d="M87.9804 382.162C86.0732 384.191 83.438 385.379 80.6545 385.466C77.8711 385.552 75.1674 384.529 73.1383 382.622C71.1091 380.714 69.9208 378.079 69.8346 375.296C69.7484 372.512 70.7714 369.809 72.6787 367.779L80.3295 374.971L87.9804 382.162Z" fill="#DC6856"/>
<rect x="64.2773" y="359.197" width="42" height="4" transform="rotate(43.2263 64.2773 359.197)" fill="#DC6856"/>
<ellipse cx="65.8028" cy="373.976" rx="1" ry="2" transform="rotate(109.345 65.8028 373.976)" fill="#FFF6CB"/>
<ellipse cx="67.4948" cy="381.758" rx="1" ry="2" transform="rotate(70.1225 67.4948 381.758)" fill="#FFF6CB"/>
<ellipse cx="73.9573" cy="387.819" rx="1" ry="2" transform="rotate(21.989 73.9573 387.819)" fill="#FFF6CB"/>
<ellipse cx="82.6786" cy="389.554" rx="1" ry="2" transform="rotate(149.392 82.6786 389.554)" fill="#FFF6CB"/>
<circle cx="71" cy="313" r="15" fill="#40693A"/>
<circle cx="71" cy="313" r="13" fill="#E0EDD5"/>
<ellipse cx="71" cy="309" rx="1" ry="2" fill="#A2CC95"/>
<ellipse cx="71" cy="317" rx="1" ry="2" fill="#A2CC95"/>
<ellipse cx="75" cy="313" rx="1" ry="2" transform="rotate(90 75 313)" fill="#A2CC95"/>
<ellipse cx="67" cy="313" rx="1" ry="2" transform="rotate(90 67 313)" fill="#A2CC95"/>
</g>
</svg>
